<mxfile host="app.diagrams.net" modified="2022-04-15T20:40:32.701Z" agent="5.0 (Windows NT 10.0; Win64; x64) AppleWebKit/537.36 (KHTML, like Gecko) Chrome/100.0.4896.88 Safari/537.36" etag="t_GB0jc7-RaDUkBko8z0" version="17.4.3" type="github">
  <diagram id="wM_KeqFxRHPUfSDrbCuQ" name="Page-1">
    <mxGraphModel dx="3829" dy="1134" grid="1" gridSize="10" guides="1" tooltips="1" connect="1" arrows="1" fold="1" page="1" pageScale="1" pageWidth="1169" pageHeight="827" math="0" shadow="0">
      <root>
        <mxCell id="0" />
        <mxCell id="1" parent="0" />
        <mxCell id="snQMIcMd7hBFIwh6tkoJ-2" style="edgeStyle=orthogonalEdgeStyle;rounded=0;orthogonalLoop=1;jettySize=auto;html=1;exitX=1;exitY=0.5;exitDx=0;exitDy=0;" parent="1" source="snQMIcMd7hBFIwh6tkoJ-1" edge="1">
          <mxGeometry relative="1" as="geometry">
            <mxPoint x="170" y="205" as="targetPoint" />
          </mxGeometry>
        </mxCell>
        <mxCell id="snQMIcMd7hBFIwh6tkoJ-3" value="Receive Application" style="edgeLabel;html=1;align=center;verticalAlign=middle;resizable=0;points=[];rotation=90;" parent="snQMIcMd7hBFIwh6tkoJ-2" vertex="1" connectable="0">
          <mxGeometry x="0.2214" y="2" relative="1" as="geometry">
            <mxPoint x="-9" y="2" as="offset" />
          </mxGeometry>
        </mxCell>
        <mxCell id="snQMIcMd7hBFIwh6tkoJ-1" value="Start" style="text;html=1;strokeColor=default;fillColor=none;align=center;verticalAlign=middle;whiteSpace=wrap;rounded=0;" parent="1" vertex="1">
          <mxGeometry x="30" y="190" width="60" height="30" as="geometry" />
        </mxCell>
        <mxCell id="snQMIcMd7hBFIwh6tkoJ-6" style="edgeStyle=orthogonalEdgeStyle;rounded=0;orthogonalLoop=1;jettySize=auto;html=1;exitX=1;exitY=0.5;exitDx=0;exitDy=0;entryX=0;entryY=0.5;entryDx=0;entryDy=0;" parent="1" source="snQMIcMd7hBFIwh6tkoJ-4" target="snQMIcMd7hBFIwh6tkoJ-8" edge="1">
          <mxGeometry relative="1" as="geometry">
            <mxPoint x="310" y="205" as="targetPoint" />
          </mxGeometry>
        </mxCell>
        <mxCell id="snQMIcMd7hBFIwh6tkoJ-7" value="Register Application" style="edgeLabel;html=1;align=center;verticalAlign=middle;resizable=0;points=[];rotation=90;" parent="snQMIcMd7hBFIwh6tkoJ-6" vertex="1" connectable="0">
          <mxGeometry x="-0.2214" relative="1" as="geometry">
            <mxPoint as="offset" />
          </mxGeometry>
        </mxCell>
        <mxCell id="snQMIcMd7hBFIwh6tkoJ-9" style="edgeStyle=orthogonalEdgeStyle;rounded=0;orthogonalLoop=1;jettySize=auto;html=1;exitX=0.5;exitY=1;exitDx=0;exitDy=0;entryX=0.5;entryY=0;entryDx=0;entryDy=0;" parent="1" source="snQMIcMd7hBFIwh6tkoJ-4" target="snQMIcMd7hBFIwh6tkoJ-12" edge="1">
          <mxGeometry relative="1" as="geometry">
            <mxPoint x="200" y="310" as="targetPoint" />
          </mxGeometry>
        </mxCell>
        <mxCell id="snQMIcMd7hBFIwh6tkoJ-11" value="Register Application" style="edgeLabel;html=1;align=center;verticalAlign=middle;resizable=0;points=[];" parent="snQMIcMd7hBFIwh6tkoJ-9" vertex="1" connectable="0">
          <mxGeometry x="0.2063" y="-1" relative="1" as="geometry">
            <mxPoint x="1" y="-24" as="offset" />
          </mxGeometry>
        </mxCell>
        <mxCell id="snQMIcMd7hBFIwh6tkoJ-4" value="Application Received&amp;nbsp;" style="text;html=1;strokeColor=default;fillColor=none;align=center;verticalAlign=middle;whiteSpace=wrap;rounded=0;" parent="1" vertex="1">
          <mxGeometry x="170" y="190" width="80" height="30" as="geometry" />
        </mxCell>
        <mxCell id="snQMIcMd7hBFIwh6tkoJ-14" value="" style="edgeStyle=orthogonalEdgeStyle;rounded=0;orthogonalLoop=1;jettySize=auto;html=1;" parent="1" source="snQMIcMd7hBFIwh6tkoJ-8" target="snQMIcMd7hBFIwh6tkoJ-13" edge="1">
          <mxGeometry relative="1" as="geometry" />
        </mxCell>
        <mxCell id="snQMIcMd7hBFIwh6tkoJ-15" value="Manual Handling by CRO" style="edgeLabel;html=1;align=center;verticalAlign=middle;resizable=0;points=[];rotation=90;" parent="snQMIcMd7hBFIwh6tkoJ-14" vertex="1" connectable="0">
          <mxGeometry x="-0.2357" relative="1" as="geometry">
            <mxPoint as="offset" />
          </mxGeometry>
        </mxCell>
        <mxCell id="snQMIcMd7hBFIwh6tkoJ-8" value="Initiate Manual Handling&amp;nbsp;" style="text;html=1;strokeColor=default;fillColor=none;align=center;verticalAlign=middle;whiteSpace=wrap;rounded=0;" parent="1" vertex="1">
          <mxGeometry x="310" y="190" width="90" height="30" as="geometry" />
        </mxCell>
        <mxCell id="mQYFZl7Jgpbj4pTp9fjZ-7" value="" style="edgeStyle=orthogonalEdgeStyle;rounded=0;orthogonalLoop=1;jettySize=auto;html=1;" edge="1" parent="1" source="snQMIcMd7hBFIwh6tkoJ-12" target="mQYFZl7Jgpbj4pTp9fjZ-6">
          <mxGeometry relative="1" as="geometry" />
        </mxCell>
        <mxCell id="mQYFZl7Jgpbj4pTp9fjZ-10" value="Start phone installation Registration phase" style="edgeLabel;html=1;align=center;verticalAlign=middle;resizable=0;points=[];" vertex="1" connectable="0" parent="mQYFZl7Jgpbj4pTp9fjZ-7">
          <mxGeometry x="-0.2875" relative="1" as="geometry">
            <mxPoint as="offset" />
          </mxGeometry>
        </mxCell>
        <mxCell id="snQMIcMd7hBFIwh6tkoJ-12" value="Initiate Automatic Handling" style="text;html=1;strokeColor=default;fillColor=none;align=center;verticalAlign=middle;whiteSpace=wrap;rounded=0;" parent="1" vertex="1">
          <mxGeometry x="160" y="300" width="100" height="30" as="geometry" />
        </mxCell>
        <mxCell id="mQYFZl7Jgpbj4pTp9fjZ-4" value="" style="edgeStyle=orthogonalEdgeStyle;rounded=0;orthogonalLoop=1;jettySize=auto;html=1;" edge="1" parent="1" source="snQMIcMd7hBFIwh6tkoJ-13" target="mQYFZl7Jgpbj4pTp9fjZ-3">
          <mxGeometry relative="1" as="geometry" />
        </mxCell>
        <mxCell id="mQYFZl7Jgpbj4pTp9fjZ-5" value="Receive Results" style="edgeLabel;html=1;align=center;verticalAlign=middle;resizable=0;points=[];" vertex="1" connectable="0" parent="mQYFZl7Jgpbj4pTp9fjZ-4">
          <mxGeometry x="0.2611" relative="1" as="geometry">
            <mxPoint y="308" as="offset" />
          </mxGeometry>
        </mxCell>
        <mxCell id="snQMIcMd7hBFIwh6tkoJ-13" value="Manual Handling Done&amp;nbsp;" style="text;html=1;strokeColor=default;fillColor=none;align=center;verticalAlign=middle;whiteSpace=wrap;rounded=0;" parent="1" vertex="1">
          <mxGeometry x="495" y="190" width="95" height="30" as="geometry" />
        </mxCell>
        <mxCell id="mQYFZl7Jgpbj4pTp9fjZ-40" value="" style="edgeStyle=orthogonalEdgeStyle;rounded=0;orthogonalLoop=1;jettySize=auto;html=1;" edge="1" parent="1" source="mQYFZl7Jgpbj4pTp9fjZ-3" target="mQYFZl7Jgpbj4pTp9fjZ-39">
          <mxGeometry relative="1" as="geometry" />
        </mxCell>
        <mxCell id="mQYFZl7Jgpbj4pTp9fjZ-41" value="Configure Phone Device" style="edgeLabel;html=1;align=center;verticalAlign=middle;resizable=0;points=[];" vertex="1" connectable="0" parent="mQYFZl7Jgpbj4pTp9fjZ-40">
          <mxGeometry x="0.2417" y="-1" relative="1" as="geometry">
            <mxPoint as="offset" />
          </mxGeometry>
        </mxCell>
        <mxCell id="mQYFZl7Jgpbj4pTp9fjZ-3" value="[Reminder Sent]" style="text;html=1;strokeColor=default;fillColor=none;align=center;verticalAlign=middle;whiteSpace=wrap;rounded=0;" vertex="1" parent="1">
          <mxGeometry x="495" y="1190" width="95" height="30" as="geometry" />
        </mxCell>
        <mxCell id="mQYFZl7Jgpbj4pTp9fjZ-9" value="" style="edgeStyle=orthogonalEdgeStyle;rounded=0;orthogonalLoop=1;jettySize=auto;html=1;" edge="1" parent="1" source="mQYFZl7Jgpbj4pTp9fjZ-6" target="mQYFZl7Jgpbj4pTp9fjZ-8">
          <mxGeometry relative="1" as="geometry" />
        </mxCell>
        <mxCell id="mQYFZl7Jgpbj4pTp9fjZ-76" value="Obtain Alarm No" style="edgeLabel;html=1;align=center;verticalAlign=middle;resizable=0;points=[];" vertex="1" connectable="0" parent="mQYFZl7Jgpbj4pTp9fjZ-9">
          <mxGeometry x="0.6235" y="-1" relative="1" as="geometry">
            <mxPoint as="offset" />
          </mxGeometry>
        </mxCell>
        <mxCell id="mQYFZl7Jgpbj4pTp9fjZ-12" value="" style="edgeStyle=orthogonalEdgeStyle;rounded=0;orthogonalLoop=1;jettySize=auto;html=1;" edge="1" parent="1" source="mQYFZl7Jgpbj4pTp9fjZ-6" target="mQYFZl7Jgpbj4pTp9fjZ-11">
          <mxGeometry relative="1" as="geometry" />
        </mxCell>
        <mxCell id="mQYFZl7Jgpbj4pTp9fjZ-77" value="Inform Citizen" style="edgeLabel;html=1;align=center;verticalAlign=middle;resizable=0;points=[];" vertex="1" connectable="0" parent="mQYFZl7Jgpbj4pTp9fjZ-12">
          <mxGeometry x="0.6137" y="-3" relative="1" as="geometry">
            <mxPoint as="offset" />
          </mxGeometry>
        </mxCell>
        <mxCell id="mQYFZl7Jgpbj4pTp9fjZ-6" value="[Initiate Inform Citizen, Initiate alarm no.]" style="text;html=1;strokeColor=default;fillColor=none;align=center;verticalAlign=middle;whiteSpace=wrap;rounded=0;" vertex="1" parent="1">
          <mxGeometry x="130" y="410" width="160" height="30" as="geometry" />
        </mxCell>
        <mxCell id="mQYFZl7Jgpbj4pTp9fjZ-14" value="" style="edgeStyle=orthogonalEdgeStyle;rounded=0;orthogonalLoop=1;jettySize=auto;html=1;entryX=0.25;entryY=0;entryDx=0;entryDy=0;" edge="1" parent="1" source="mQYFZl7Jgpbj4pTp9fjZ-8" target="mQYFZl7Jgpbj4pTp9fjZ-13">
          <mxGeometry relative="1" as="geometry" />
        </mxCell>
        <mxCell id="mQYFZl7Jgpbj4pTp9fjZ-17" value="Inform Citizen" style="edgeLabel;html=1;align=center;verticalAlign=middle;resizable=0;points=[];" vertex="1" connectable="0" parent="mQYFZl7Jgpbj4pTp9fjZ-14">
          <mxGeometry x="-0.569" y="1" relative="1" as="geometry">
            <mxPoint as="offset" />
          </mxGeometry>
        </mxCell>
        <mxCell id="mQYFZl7Jgpbj4pTp9fjZ-8" value="[Initiate Inform Citizen, Alarm No. Obtained]" style="text;html=1;strokeColor=default;fillColor=none;align=center;verticalAlign=middle;whiteSpace=wrap;rounded=0;" vertex="1" parent="1">
          <mxGeometry x="40" y="520" width="160" height="30" as="geometry" />
        </mxCell>
        <mxCell id="mQYFZl7Jgpbj4pTp9fjZ-15" style="edgeStyle=orthogonalEdgeStyle;rounded=0;orthogonalLoop=1;jettySize=auto;html=1;exitX=0.5;exitY=1;exitDx=0;exitDy=0;entryX=0.75;entryY=0;entryDx=0;entryDy=0;" edge="1" parent="1" source="mQYFZl7Jgpbj4pTp9fjZ-11" target="mQYFZl7Jgpbj4pTp9fjZ-13">
          <mxGeometry relative="1" as="geometry" />
        </mxCell>
        <mxCell id="mQYFZl7Jgpbj4pTp9fjZ-18" value="Obtain Alarm Number" style="edgeLabel;html=1;align=center;verticalAlign=middle;resizable=0;points=[];" vertex="1" connectable="0" parent="mQYFZl7Jgpbj4pTp9fjZ-15">
          <mxGeometry x="-0.5571" y="1" relative="1" as="geometry">
            <mxPoint as="offset" />
          </mxGeometry>
        </mxCell>
        <mxCell id="mQYFZl7Jgpbj4pTp9fjZ-11" value="[Citizen Informed, Initiate alarm no.]" style="text;html=1;strokeColor=default;fillColor=none;align=center;verticalAlign=middle;whiteSpace=wrap;rounded=0;" vertex="1" parent="1">
          <mxGeometry x="220" y="520" width="160" height="30" as="geometry" />
        </mxCell>
        <mxCell id="mQYFZl7Jgpbj4pTp9fjZ-20" value="" style="edgeStyle=orthogonalEdgeStyle;rounded=0;orthogonalLoop=1;jettySize=auto;html=1;" edge="1" parent="1" source="mQYFZl7Jgpbj4pTp9fjZ-13" target="mQYFZl7Jgpbj4pTp9fjZ-19">
          <mxGeometry relative="1" as="geometry" />
        </mxCell>
        <mxCell id="mQYFZl7Jgpbj4pTp9fjZ-23" value="Send Installation Order" style="edgeLabel;html=1;align=center;verticalAlign=middle;resizable=0;points=[];" vertex="1" connectable="0" parent="mQYFZl7Jgpbj4pTp9fjZ-20">
          <mxGeometry x="0.2417" y="1" relative="1" as="geometry">
            <mxPoint as="offset" />
          </mxGeometry>
        </mxCell>
        <mxCell id="mQYFZl7Jgpbj4pTp9fjZ-13" value="[Citizen Informed, Alarm No. Obtained]" style="text;html=1;strokeColor=default;fillColor=none;align=center;verticalAlign=middle;whiteSpace=wrap;rounded=0;" vertex="1" parent="1">
          <mxGeometry x="130" y="640" width="160" height="30" as="geometry" />
        </mxCell>
        <mxCell id="mQYFZl7Jgpbj4pTp9fjZ-22" value="" style="edgeStyle=orthogonalEdgeStyle;rounded=0;orthogonalLoop=1;jettySize=auto;html=1;" edge="1" parent="1" source="mQYFZl7Jgpbj4pTp9fjZ-19" target="mQYFZl7Jgpbj4pTp9fjZ-21">
          <mxGeometry relative="1" as="geometry" />
        </mxCell>
        <mxCell id="mQYFZl7Jgpbj4pTp9fjZ-24" value="Allocate Order" style="edgeLabel;html=1;align=center;verticalAlign=middle;resizable=0;points=[];" vertex="1" connectable="0" parent="mQYFZl7Jgpbj4pTp9fjZ-22">
          <mxGeometry x="0.2" y="-1" relative="1" as="geometry">
            <mxPoint as="offset" />
          </mxGeometry>
        </mxCell>
        <mxCell id="mQYFZl7Jgpbj4pTp9fjZ-19" value="[Installation Order Sent]" style="text;html=1;strokeColor=default;fillColor=none;align=center;verticalAlign=middle;whiteSpace=wrap;rounded=0;" vertex="1" parent="1">
          <mxGeometry x="130" y="750" width="160" height="30" as="geometry" />
        </mxCell>
        <mxCell id="mQYFZl7Jgpbj4pTp9fjZ-26" value="Call Citizen" style="edgeStyle=orthogonalEdgeStyle;rounded=0;orthogonalLoop=1;jettySize=auto;html=1;" edge="1" parent="1" source="mQYFZl7Jgpbj4pTp9fjZ-21" target="mQYFZl7Jgpbj4pTp9fjZ-25">
          <mxGeometry x="0.25" relative="1" as="geometry">
            <mxPoint as="offset" />
          </mxGeometry>
        </mxCell>
        <mxCell id="mQYFZl7Jgpbj4pTp9fjZ-21" value="[Order Allocated]" style="text;html=1;strokeColor=default;fillColor=none;align=center;verticalAlign=middle;whiteSpace=wrap;rounded=0;" vertex="1" parent="1">
          <mxGeometry x="130" y="860" width="160" height="30" as="geometry" />
        </mxCell>
        <mxCell id="mQYFZl7Jgpbj4pTp9fjZ-28" value="" style="edgeStyle=orthogonalEdgeStyle;rounded=0;orthogonalLoop=1;jettySize=auto;html=1;" edge="1" parent="1" source="mQYFZl7Jgpbj4pTp9fjZ-25" target="mQYFZl7Jgpbj4pTp9fjZ-27">
          <mxGeometry relative="1" as="geometry" />
        </mxCell>
        <mxCell id="mQYFZl7Jgpbj4pTp9fjZ-29" value="Log entry of scheduling" style="edgeLabel;html=1;align=center;verticalAlign=middle;resizable=0;points=[];" vertex="1" connectable="0" parent="mQYFZl7Jgpbj4pTp9fjZ-28">
          <mxGeometry x="0.2125" y="1" relative="1" as="geometry">
            <mxPoint as="offset" />
          </mxGeometry>
        </mxCell>
        <mxCell id="mQYFZl7Jgpbj4pTp9fjZ-25" value="[Citizen Called]" style="text;html=1;strokeColor=default;fillColor=none;align=center;verticalAlign=middle;whiteSpace=wrap;rounded=0;" vertex="1" parent="1">
          <mxGeometry x="130" y="970" width="160" height="30" as="geometry" />
        </mxCell>
        <mxCell id="mQYFZl7Jgpbj4pTp9fjZ-31" value="" style="edgeStyle=orthogonalEdgeStyle;rounded=0;orthogonalLoop=1;jettySize=auto;html=1;" edge="1" parent="1" source="mQYFZl7Jgpbj4pTp9fjZ-27" target="mQYFZl7Jgpbj4pTp9fjZ-30">
          <mxGeometry relative="1" as="geometry" />
        </mxCell>
        <mxCell id="mQYFZl7Jgpbj4pTp9fjZ-32" value="Send Confirmation" style="edgeLabel;html=1;align=center;verticalAlign=middle;resizable=0;points=[];" vertex="1" connectable="0" parent="mQYFZl7Jgpbj4pTp9fjZ-31">
          <mxGeometry x="0.2125" y="2" relative="1" as="geometry">
            <mxPoint as="offset" />
          </mxGeometry>
        </mxCell>
        <mxCell id="mQYFZl7Jgpbj4pTp9fjZ-27" value="[Entry Logged]" style="text;html=1;strokeColor=default;fillColor=none;align=center;verticalAlign=middle;whiteSpace=wrap;rounded=0;" vertex="1" parent="1">
          <mxGeometry x="130" y="1080" width="160" height="30" as="geometry" />
        </mxCell>
        <mxCell id="mQYFZl7Jgpbj4pTp9fjZ-34" value="" style="edgeStyle=orthogonalEdgeStyle;rounded=0;orthogonalLoop=1;jettySize=auto;html=1;" edge="1" parent="1" source="mQYFZl7Jgpbj4pTp9fjZ-30" target="mQYFZl7Jgpbj4pTp9fjZ-33">
          <mxGeometry relative="1" as="geometry" />
        </mxCell>
        <mxCell id="mQYFZl7Jgpbj4pTp9fjZ-35" value="Reschedule" style="edgeLabel;html=1;align=center;verticalAlign=middle;resizable=0;points=[];" vertex="1" connectable="0" parent="mQYFZl7Jgpbj4pTp9fjZ-34">
          <mxGeometry x="0.3444" y="-1" relative="1" as="geometry">
            <mxPoint x="31" y="1" as="offset" />
          </mxGeometry>
        </mxCell>
        <mxCell id="mQYFZl7Jgpbj4pTp9fjZ-37" style="edgeStyle=orthogonalEdgeStyle;rounded=0;orthogonalLoop=1;jettySize=auto;html=1;exitX=1;exitY=0.5;exitDx=0;exitDy=0;entryX=0;entryY=0.5;entryDx=0;entryDy=0;" edge="1" parent="1" source="mQYFZl7Jgpbj4pTp9fjZ-30" target="mQYFZl7Jgpbj4pTp9fjZ-3">
          <mxGeometry relative="1" as="geometry" />
        </mxCell>
        <mxCell id="mQYFZl7Jgpbj4pTp9fjZ-38" value="Send Reminder" style="edgeLabel;html=1;align=center;verticalAlign=middle;resizable=0;points=[];" vertex="1" connectable="0" parent="mQYFZl7Jgpbj4pTp9fjZ-37">
          <mxGeometry x="0.0911" y="2" relative="1" as="geometry">
            <mxPoint as="offset" />
          </mxGeometry>
        </mxCell>
        <mxCell id="mQYFZl7Jgpbj4pTp9fjZ-30" value="[Confirmation Sent]" style="text;html=1;strokeColor=default;fillColor=none;align=center;verticalAlign=middle;whiteSpace=wrap;rounded=0;" vertex="1" parent="1">
          <mxGeometry x="130" y="1190" width="160" height="30" as="geometry" />
        </mxCell>
        <mxCell id="mQYFZl7Jgpbj4pTp9fjZ-36" style="edgeStyle=orthogonalEdgeStyle;rounded=0;orthogonalLoop=1;jettySize=auto;html=1;exitX=0.5;exitY=0;exitDx=0;exitDy=0;entryX=0;entryY=0.5;entryDx=0;entryDy=0;" edge="1" parent="1" source="mQYFZl7Jgpbj4pTp9fjZ-33" target="mQYFZl7Jgpbj4pTp9fjZ-27">
          <mxGeometry relative="1" as="geometry" />
        </mxCell>
        <mxCell id="mQYFZl7Jgpbj4pTp9fjZ-33" value="[Rescheduled]" style="text;html=1;strokeColor=default;fillColor=none;align=center;verticalAlign=middle;whiteSpace=wrap;rounded=0;" vertex="1" parent="1">
          <mxGeometry x="-80" y="1190" width="90" height="30" as="geometry" />
        </mxCell>
        <mxCell id="mQYFZl7Jgpbj4pTp9fjZ-44" value="" style="edgeStyle=orthogonalEdgeStyle;rounded=0;orthogonalLoop=1;jettySize=auto;html=1;" edge="1" parent="1" source="mQYFZl7Jgpbj4pTp9fjZ-39" target="mQYFZl7Jgpbj4pTp9fjZ-43">
          <mxGeometry relative="1" as="geometry" />
        </mxCell>
        <mxCell id="mQYFZl7Jgpbj4pTp9fjZ-47" value="Start Installation" style="edgeLabel;html=1;align=center;verticalAlign=middle;resizable=0;points=[];" vertex="1" connectable="0" parent="mQYFZl7Jgpbj4pTp9fjZ-44">
          <mxGeometry x="0.5366" y="-1" relative="1" as="geometry">
            <mxPoint as="offset" />
          </mxGeometry>
        </mxCell>
        <mxCell id="mQYFZl7Jgpbj4pTp9fjZ-46" value="" style="edgeStyle=orthogonalEdgeStyle;rounded=0;orthogonalLoop=1;jettySize=auto;html=1;" edge="1" parent="1" source="mQYFZl7Jgpbj4pTp9fjZ-39" target="mQYFZl7Jgpbj4pTp9fjZ-45">
          <mxGeometry relative="1" as="geometry" />
        </mxCell>
        <mxCell id="mQYFZl7Jgpbj4pTp9fjZ-48" value="Start Installation" style="edgeLabel;html=1;align=center;verticalAlign=middle;resizable=0;points=[];" vertex="1" connectable="0" parent="mQYFZl7Jgpbj4pTp9fjZ-46">
          <mxGeometry x="0.5366" relative="1" as="geometry">
            <mxPoint as="offset" />
          </mxGeometry>
        </mxCell>
        <mxCell id="mQYFZl7Jgpbj4pTp9fjZ-39" value="[Device Configured]" style="text;html=1;strokeColor=default;fillColor=none;align=center;verticalAlign=middle;whiteSpace=wrap;rounded=0;" vertex="1" parent="1">
          <mxGeometry x="495" y="1300" width="95" height="30" as="geometry" />
        </mxCell>
        <mxCell id="mQYFZl7Jgpbj4pTp9fjZ-92" value="" style="edgeStyle=orthogonalEdgeStyle;rounded=0;orthogonalLoop=1;jettySize=auto;html=1;" edge="1" parent="1" source="mQYFZl7Jgpbj4pTp9fjZ-43" target="mQYFZl7Jgpbj4pTp9fjZ-91">
          <mxGeometry relative="1" as="geometry" />
        </mxCell>
        <mxCell id="mQYFZl7Jgpbj4pTp9fjZ-93" value="help citizen if technical problem" style="edgeLabel;html=1;align=center;verticalAlign=middle;resizable=0;points=[];" vertex="1" connectable="0" parent="mQYFZl7Jgpbj4pTp9fjZ-92">
          <mxGeometry x="-0.2583" y="-1" relative="1" as="geometry">
            <mxPoint as="offset" />
          </mxGeometry>
        </mxCell>
        <mxCell id="mQYFZl7Jgpbj4pTp9fjZ-94" value="resolve problem (done by citizen)" style="edgeLabel;html=1;align=center;verticalAlign=middle;resizable=0;points=[];" vertex="1" connectable="0" parent="mQYFZl7Jgpbj4pTp9fjZ-92">
          <mxGeometry x="0.2417" relative="1" as="geometry">
            <mxPoint as="offset" />
          </mxGeometry>
        </mxCell>
        <mxCell id="mQYFZl7Jgpbj4pTp9fjZ-43" value="[Problem Occurred]" style="text;html=1;strokeColor=default;fillColor=none;align=center;verticalAlign=middle;whiteSpace=wrap;rounded=0;" vertex="1" parent="1">
          <mxGeometry x="390" y="1410" width="95" height="30" as="geometry" />
        </mxCell>
        <mxCell id="mQYFZl7Jgpbj4pTp9fjZ-50" value="" style="edgeStyle=orthogonalEdgeStyle;rounded=0;orthogonalLoop=1;jettySize=auto;html=1;" edge="1" parent="1" source="mQYFZl7Jgpbj4pTp9fjZ-45" target="mQYFZl7Jgpbj4pTp9fjZ-49">
          <mxGeometry relative="1" as="geometry" />
        </mxCell>
        <mxCell id="mQYFZl7Jgpbj4pTp9fjZ-51" value="Log Entry for Installation Attempt" style="edgeLabel;html=1;align=center;verticalAlign=middle;resizable=0;points=[];" vertex="1" connectable="0" parent="mQYFZl7Jgpbj4pTp9fjZ-50">
          <mxGeometry x="0.2833" relative="1" as="geometry">
            <mxPoint as="offset" />
          </mxGeometry>
        </mxCell>
        <mxCell id="mQYFZl7Jgpbj4pTp9fjZ-45" value="[Successful Installation]" style="text;html=1;strokeColor=default;fillColor=none;align=center;verticalAlign=middle;whiteSpace=wrap;rounded=0;" vertex="1" parent="1">
          <mxGeometry x="600" y="1410" width="95" height="30" as="geometry" />
        </mxCell>
        <mxCell id="mQYFZl7Jgpbj4pTp9fjZ-53" value="" style="edgeStyle=orthogonalEdgeStyle;rounded=0;orthogonalLoop=1;jettySize=auto;html=1;" edge="1" parent="1" source="mQYFZl7Jgpbj4pTp9fjZ-49" target="mQYFZl7Jgpbj4pTp9fjZ-52">
          <mxGeometry relative="1" as="geometry">
            <Array as="points">
              <mxPoint x="648" y="1600" />
              <mxPoint x="648" y="1600" />
            </Array>
          </mxGeometry>
        </mxCell>
        <mxCell id="mQYFZl7Jgpbj4pTp9fjZ-54" value="Perform Test" style="edgeLabel;html=1;align=center;verticalAlign=middle;resizable=0;points=[];" vertex="1" connectable="0" parent="mQYFZl7Jgpbj4pTp9fjZ-53">
          <mxGeometry x="-0.3" relative="1" as="geometry">
            <mxPoint y="22" as="offset" />
          </mxGeometry>
        </mxCell>
        <mxCell id="mQYFZl7Jgpbj4pTp9fjZ-49" value="[Installation Entry Logged]" style="text;html=1;strokeColor=default;fillColor=none;align=center;verticalAlign=middle;whiteSpace=wrap;rounded=0;" vertex="1" parent="1">
          <mxGeometry x="600" y="1520" width="95" height="30" as="geometry" />
        </mxCell>
        <mxCell id="mQYFZl7Jgpbj4pTp9fjZ-56" value="" style="edgeStyle=orthogonalEdgeStyle;rounded=0;orthogonalLoop=1;jettySize=auto;html=1;" edge="1" parent="1" source="mQYFZl7Jgpbj4pTp9fjZ-52" target="mQYFZl7Jgpbj4pTp9fjZ-55">
          <mxGeometry relative="1" as="geometry">
            <Array as="points">
              <mxPoint x="648" y="1700" />
              <mxPoint x="648" y="1700" />
            </Array>
          </mxGeometry>
        </mxCell>
        <mxCell id="mQYFZl7Jgpbj4pTp9fjZ-57" value="Check Out Keys" style="edgeLabel;html=1;align=center;verticalAlign=middle;resizable=0;points=[];" vertex="1" connectable="0" parent="mQYFZl7Jgpbj4pTp9fjZ-56">
          <mxGeometry x="0.2" y="-1" relative="1" as="geometry">
            <mxPoint as="offset" />
          </mxGeometry>
        </mxCell>
        <mxCell id="mQYFZl7Jgpbj4pTp9fjZ-52" value="[Test Performed]" style="text;html=1;strokeColor=default;fillColor=none;align=center;verticalAlign=middle;whiteSpace=wrap;rounded=0;" vertex="1" parent="1">
          <mxGeometry x="600" y="1630" width="95" height="30" as="geometry" />
        </mxCell>
        <mxCell id="mQYFZl7Jgpbj4pTp9fjZ-59" value="" style="edgeStyle=orthogonalEdgeStyle;rounded=0;orthogonalLoop=1;jettySize=auto;html=1;" edge="1" parent="1" source="mQYFZl7Jgpbj4pTp9fjZ-55" target="mQYFZl7Jgpbj4pTp9fjZ-58">
          <mxGeometry relative="1" as="geometry" />
        </mxCell>
        <mxCell id="mQYFZl7Jgpbj4pTp9fjZ-60" value="Enter Installation and Key data into system" style="edgeLabel;html=1;align=center;verticalAlign=middle;resizable=0;points=[];" vertex="1" connectable="0" parent="mQYFZl7Jgpbj4pTp9fjZ-59">
          <mxGeometry x="0.2" relative="1" as="geometry">
            <mxPoint as="offset" />
          </mxGeometry>
        </mxCell>
        <mxCell id="mQYFZl7Jgpbj4pTp9fjZ-55" value="[Keys Checked]" style="text;html=1;strokeColor=default;fillColor=none;align=center;verticalAlign=middle;whiteSpace=wrap;rounded=0;" vertex="1" parent="1">
          <mxGeometry x="600" y="1740" width="95" height="30" as="geometry" />
        </mxCell>
        <mxCell id="mQYFZl7Jgpbj4pTp9fjZ-62" value="" style="edgeStyle=orthogonalEdgeStyle;rounded=0;orthogonalLoop=1;jettySize=auto;html=1;" edge="1" parent="1" source="mQYFZl7Jgpbj4pTp9fjZ-58" target="mQYFZl7Jgpbj4pTp9fjZ-61">
          <mxGeometry relative="1" as="geometry" />
        </mxCell>
        <mxCell id="mQYFZl7Jgpbj4pTp9fjZ-73" value="Hand over the key to alarm group" style="edgeLabel;html=1;align=center;verticalAlign=middle;resizable=0;points=[];" vertex="1" connectable="0" parent="mQYFZl7Jgpbj4pTp9fjZ-62">
          <mxGeometry x="0.2" relative="1" as="geometry">
            <mxPoint as="offset" />
          </mxGeometry>
        </mxCell>
        <mxCell id="mQYFZl7Jgpbj4pTp9fjZ-58" value="[Data Entered]" style="text;html=1;strokeColor=default;fillColor=none;align=center;verticalAlign=middle;whiteSpace=wrap;rounded=0;" vertex="1" parent="1">
          <mxGeometry x="600" y="1850" width="95" height="30" as="geometry" />
        </mxCell>
        <mxCell id="mQYFZl7Jgpbj4pTp9fjZ-64" value="" style="edgeStyle=orthogonalEdgeStyle;rounded=0;orthogonalLoop=1;jettySize=auto;html=1;exitX=0.25;exitY=1;exitDx=0;exitDy=0;" edge="1" parent="1" source="mQYFZl7Jgpbj4pTp9fjZ-61" target="mQYFZl7Jgpbj4pTp9fjZ-63">
          <mxGeometry relative="1" as="geometry" />
        </mxCell>
        <mxCell id="mQYFZl7Jgpbj4pTp9fjZ-74" value="Alarm Group Allocate key storage" style="edgeLabel;html=1;align=center;verticalAlign=middle;resizable=0;points=[];" vertex="1" connectable="0" parent="mQYFZl7Jgpbj4pTp9fjZ-64">
          <mxGeometry x="0.5921" y="-1" relative="1" as="geometry">
            <mxPoint as="offset" />
          </mxGeometry>
        </mxCell>
        <mxCell id="mQYFZl7Jgpbj4pTp9fjZ-66" value="" style="edgeStyle=orthogonalEdgeStyle;rounded=0;orthogonalLoop=1;jettySize=auto;html=1;exitX=0.75;exitY=1;exitDx=0;exitDy=0;" edge="1" parent="1" source="mQYFZl7Jgpbj4pTp9fjZ-61" target="mQYFZl7Jgpbj4pTp9fjZ-65">
          <mxGeometry relative="1" as="geometry" />
        </mxCell>
        <mxCell id="mQYFZl7Jgpbj4pTp9fjZ-75" value="Add citizen to accounting system" style="edgeLabel;html=1;align=center;verticalAlign=middle;resizable=0;points=[];" vertex="1" connectable="0" parent="mQYFZl7Jgpbj4pTp9fjZ-66">
          <mxGeometry x="0.573" y="-1" relative="1" as="geometry">
            <mxPoint as="offset" />
          </mxGeometry>
        </mxCell>
        <mxCell id="mQYFZl7Jgpbj4pTp9fjZ-61" value="[Initiate addition of citizen,&amp;nbsp; Initiate Key Storage]" style="text;html=1;strokeColor=default;fillColor=none;align=center;verticalAlign=middle;whiteSpace=wrap;rounded=0;" vertex="1" parent="1">
          <mxGeometry x="567.5" y="1960" width="160" height="30" as="geometry" />
        </mxCell>
        <mxCell id="mQYFZl7Jgpbj4pTp9fjZ-68" value="" style="edgeStyle=orthogonalEdgeStyle;rounded=0;orthogonalLoop=1;jettySize=auto;html=1;entryX=0.25;entryY=0;entryDx=0;entryDy=0;" edge="1" parent="1" source="mQYFZl7Jgpbj4pTp9fjZ-63" target="mQYFZl7Jgpbj4pTp9fjZ-67">
          <mxGeometry relative="1" as="geometry" />
        </mxCell>
        <mxCell id="mQYFZl7Jgpbj4pTp9fjZ-78" value="Add citizen to accounting system" style="edgeLabel;html=1;align=center;verticalAlign=middle;resizable=0;points=[];" vertex="1" connectable="0" parent="mQYFZl7Jgpbj4pTp9fjZ-68">
          <mxGeometry x="-0.5747" y="-1" relative="1" as="geometry">
            <mxPoint as="offset" />
          </mxGeometry>
        </mxCell>
        <mxCell id="mQYFZl7Jgpbj4pTp9fjZ-63" value="[Initiate addition of citizen,&amp;nbsp; Storage Allocated]" style="text;html=1;strokeColor=default;fillColor=none;align=center;verticalAlign=middle;whiteSpace=wrap;rounded=0;" vertex="1" parent="1">
          <mxGeometry x="462.5" y="2068" width="160" height="30" as="geometry" />
        </mxCell>
        <mxCell id="mQYFZl7Jgpbj4pTp9fjZ-69" style="edgeStyle=orthogonalEdgeStyle;rounded=0;orthogonalLoop=1;jettySize=auto;html=1;exitX=0.5;exitY=1;exitDx=0;exitDy=0;entryX=0.75;entryY=0;entryDx=0;entryDy=0;" edge="1" parent="1" source="mQYFZl7Jgpbj4pTp9fjZ-65" target="mQYFZl7Jgpbj4pTp9fjZ-67">
          <mxGeometry relative="1" as="geometry" />
        </mxCell>
        <mxCell id="mQYFZl7Jgpbj4pTp9fjZ-79" value="Alarm Group allocate key storage" style="edgeLabel;html=1;align=center;verticalAlign=middle;resizable=0;points=[];" vertex="1" connectable="0" parent="mQYFZl7Jgpbj4pTp9fjZ-69">
          <mxGeometry x="-0.5673" y="-1" relative="1" as="geometry">
            <mxPoint as="offset" />
          </mxGeometry>
        </mxCell>
        <mxCell id="mQYFZl7Jgpbj4pTp9fjZ-65" value="[Citizen added to the system,&amp;nbsp; Initiate Key Storage]" style="text;html=1;strokeColor=default;fillColor=none;align=center;verticalAlign=middle;whiteSpace=wrap;rounded=0;" vertex="1" parent="1">
          <mxGeometry x="670" y="2068" width="160" height="30" as="geometry" />
        </mxCell>
        <mxCell id="mQYFZl7Jgpbj4pTp9fjZ-71" value="" style="edgeStyle=orthogonalEdgeStyle;rounded=0;orthogonalLoop=1;jettySize=auto;html=1;" edge="1" parent="1" source="mQYFZl7Jgpbj4pTp9fjZ-67" target="mQYFZl7Jgpbj4pTp9fjZ-70">
          <mxGeometry relative="1" as="geometry" />
        </mxCell>
        <mxCell id="mQYFZl7Jgpbj4pTp9fjZ-72" value="Calculate start time" style="edgeLabel;html=1;align=center;verticalAlign=middle;resizable=0;points=[];" vertex="1" connectable="0" parent="mQYFZl7Jgpbj4pTp9fjZ-71">
          <mxGeometry x="0.2292" y="1" relative="1" as="geometry">
            <mxPoint as="offset" />
          </mxGeometry>
        </mxCell>
        <mxCell id="mQYFZl7Jgpbj4pTp9fjZ-67" value="[Citizen Added to the system,&amp;nbsp; Storage Allocated]" style="text;html=1;strokeColor=default;fillColor=none;align=center;verticalAlign=middle;whiteSpace=wrap;rounded=0;" vertex="1" parent="1">
          <mxGeometry x="567.5" y="2178" width="160" height="30" as="geometry" />
        </mxCell>
        <mxCell id="mQYFZl7Jgpbj4pTp9fjZ-81" value="" style="edgeStyle=orthogonalEdgeStyle;rounded=0;orthogonalLoop=1;jettySize=auto;html=1;" edge="1" parent="1" source="mQYFZl7Jgpbj4pTp9fjZ-70" target="mQYFZl7Jgpbj4pTp9fjZ-80">
          <mxGeometry relative="1" as="geometry" />
        </mxCell>
        <mxCell id="mQYFZl7Jgpbj4pTp9fjZ-82" value="Inform Citizen" style="edgeLabel;html=1;align=center;verticalAlign=middle;resizable=0;points=[];" vertex="1" connectable="0" parent="mQYFZl7Jgpbj4pTp9fjZ-81">
          <mxGeometry x="-0.2083" relative="1" as="geometry">
            <mxPoint as="offset" />
          </mxGeometry>
        </mxCell>
        <mxCell id="mQYFZl7Jgpbj4pTp9fjZ-70" value="[Start time calculated]" style="text;html=1;strokeColor=default;fillColor=none;align=center;verticalAlign=middle;whiteSpace=wrap;rounded=0;" vertex="1" parent="1">
          <mxGeometry x="567.5" y="2288" width="160" height="30" as="geometry" />
        </mxCell>
        <mxCell id="mQYFZl7Jgpbj4pTp9fjZ-84" value="" style="edgeStyle=orthogonalEdgeStyle;rounded=0;orthogonalLoop=1;jettySize=auto;html=1;" edge="1" parent="1" source="mQYFZl7Jgpbj4pTp9fjZ-80" target="mQYFZl7Jgpbj4pTp9fjZ-83">
          <mxGeometry relative="1" as="geometry" />
        </mxCell>
        <mxCell id="mQYFZl7Jgpbj4pTp9fjZ-85" value="File Case" style="edgeLabel;html=1;align=center;verticalAlign=middle;resizable=0;points=[];" vertex="1" connectable="0" parent="mQYFZl7Jgpbj4pTp9fjZ-84">
          <mxGeometry x="0.25" relative="1" as="geometry">
            <mxPoint as="offset" />
          </mxGeometry>
        </mxCell>
        <mxCell id="mQYFZl7Jgpbj4pTp9fjZ-80" value="[Citizen Informed]" style="text;html=1;strokeColor=default;fillColor=none;align=center;verticalAlign=middle;whiteSpace=wrap;rounded=0;" vertex="1" parent="1">
          <mxGeometry x="567.5" y="2398" width="160" height="30" as="geometry" />
        </mxCell>
        <mxCell id="mQYFZl7Jgpbj4pTp9fjZ-87" value="" style="edgeStyle=orthogonalEdgeStyle;rounded=0;orthogonalLoop=1;jettySize=auto;html=1;" edge="1" parent="1" source="mQYFZl7Jgpbj4pTp9fjZ-83" target="mQYFZl7Jgpbj4pTp9fjZ-86">
          <mxGeometry relative="1" as="geometry" />
        </mxCell>
        <mxCell id="mQYFZl7Jgpbj4pTp9fjZ-88" value="Notify CRO" style="edgeLabel;html=1;align=center;verticalAlign=middle;resizable=0;points=[];" vertex="1" connectable="0" parent="mQYFZl7Jgpbj4pTp9fjZ-87">
          <mxGeometry x="0.2083" relative="1" as="geometry">
            <mxPoint as="offset" />
          </mxGeometry>
        </mxCell>
        <mxCell id="mQYFZl7Jgpbj4pTp9fjZ-83" value="[Case Filed]" style="text;html=1;strokeColor=default;fillColor=none;align=center;verticalAlign=middle;whiteSpace=wrap;rounded=0;" vertex="1" parent="1">
          <mxGeometry x="567.5" y="2508" width="160" height="30" as="geometry" />
        </mxCell>
        <mxCell id="mQYFZl7Jgpbj4pTp9fjZ-86" value="[END]" style="text;html=1;strokeColor=default;fillColor=none;align=center;verticalAlign=middle;whiteSpace=wrap;rounded=0;" vertex="1" parent="1">
          <mxGeometry x="567.5" y="2618" width="160" height="30" as="geometry" />
        </mxCell>
        <mxCell id="mQYFZl7Jgpbj4pTp9fjZ-95" style="edgeStyle=orthogonalEdgeStyle;rounded=0;orthogonalLoop=1;jettySize=auto;html=1;exitX=1;exitY=0.5;exitDx=0;exitDy=0;entryX=0;entryY=0.5;entryDx=0;entryDy=0;" edge="1" parent="1" source="mQYFZl7Jgpbj4pTp9fjZ-91" target="mQYFZl7Jgpbj4pTp9fjZ-49">
          <mxGeometry relative="1" as="geometry" />
        </mxCell>
        <mxCell id="mQYFZl7Jgpbj4pTp9fjZ-96" value="Log Entry for Installation Attempt" style="edgeLabel;html=1;align=center;verticalAlign=middle;resizable=0;points=[];rotation=90;" vertex="1" connectable="0" parent="mQYFZl7Jgpbj4pTp9fjZ-95">
          <mxGeometry x="0.2928" relative="1" as="geometry">
            <mxPoint x="-9" as="offset" />
          </mxGeometry>
        </mxCell>
        <mxCell id="mQYFZl7Jgpbj4pTp9fjZ-98" value="" style="edgeStyle=orthogonalEdgeStyle;rounded=0;orthogonalLoop=1;jettySize=auto;html=1;" edge="1" parent="1" source="mQYFZl7Jgpbj4pTp9fjZ-91" target="mQYFZl7Jgpbj4pTp9fjZ-97">
          <mxGeometry relative="1" as="geometry" />
        </mxCell>
        <mxCell id="mQYFZl7Jgpbj4pTp9fjZ-106" value="Check Log entry if three &lt;br&gt;installation attempts" style="edgeLabel;html=1;align=center;verticalAlign=middle;resizable=0;points=[];" vertex="1" connectable="0" parent="mQYFZl7Jgpbj4pTp9fjZ-98">
          <mxGeometry x="0.2143" relative="1" as="geometry">
            <mxPoint y="-9" as="offset" />
          </mxGeometry>
        </mxCell>
        <mxCell id="mQYFZl7Jgpbj4pTp9fjZ-100" value="" style="edgeStyle=orthogonalEdgeStyle;rounded=0;orthogonalLoop=1;jettySize=auto;html=1;" edge="1" parent="1" source="mQYFZl7Jgpbj4pTp9fjZ-91" target="mQYFZl7Jgpbj4pTp9fjZ-99">
          <mxGeometry relative="1" as="geometry" />
        </mxCell>
        <mxCell id="mQYFZl7Jgpbj4pTp9fjZ-103" value="Check Log entry if three installation attemps" style="edgeLabel;html=1;align=center;verticalAlign=middle;resizable=0;points=[];rotation=90;" vertex="1" connectable="0" parent="mQYFZl7Jgpbj4pTp9fjZ-100">
          <mxGeometry x="0.2106" relative="1" as="geometry">
            <mxPoint as="offset" />
          </mxGeometry>
        </mxCell>
        <mxCell id="mQYFZl7Jgpbj4pTp9fjZ-91" value="[Problem solved or not]" style="text;html=1;strokeColor=default;fillColor=none;align=center;verticalAlign=middle;whiteSpace=wrap;rounded=0;" vertex="1" parent="1">
          <mxGeometry x="390" y="1520" width="95" height="30" as="geometry" />
        </mxCell>
        <mxCell id="mQYFZl7Jgpbj4pTp9fjZ-108" value="" style="edgeStyle=orthogonalEdgeStyle;rounded=0;orthogonalLoop=1;jettySize=auto;html=1;" edge="1" parent="1" source="mQYFZl7Jgpbj4pTp9fjZ-97" target="mQYFZl7Jgpbj4pTp9fjZ-107">
          <mxGeometry relative="1" as="geometry" />
        </mxCell>
        <mxCell id="mQYFZl7Jgpbj4pTp9fjZ-109" value="Inform citizen about work interruption" style="edgeLabel;html=1;align=center;verticalAlign=middle;resizable=0;points=[];" vertex="1" connectable="0" parent="mQYFZl7Jgpbj4pTp9fjZ-108">
          <mxGeometry x="0.25" y="1" relative="1" as="geometry">
            <mxPoint as="offset" />
          </mxGeometry>
        </mxCell>
        <mxCell id="mQYFZl7Jgpbj4pTp9fjZ-97" value="[Work Interruption]" style="text;html=1;strokeColor=default;fillColor=none;align=center;verticalAlign=middle;whiteSpace=wrap;rounded=0;" vertex="1" parent="1">
          <mxGeometry x="390" y="1630" width="95" height="30" as="geometry" />
        </mxCell>
        <mxCell id="mQYFZl7Jgpbj4pTp9fjZ-101" style="edgeStyle=orthogonalEdgeStyle;rounded=0;orthogonalLoop=1;jettySize=auto;html=1;exitX=0;exitY=0.5;exitDx=0;exitDy=0;entryX=0;entryY=0.5;entryDx=0;entryDy=0;" edge="1" parent="1" source="mQYFZl7Jgpbj4pTp9fjZ-99" target="mQYFZl7Jgpbj4pTp9fjZ-25">
          <mxGeometry relative="1" as="geometry">
            <Array as="points">
              <mxPoint x="-110" y="1535" />
              <mxPoint x="-110" y="985" />
            </Array>
          </mxGeometry>
        </mxCell>
        <mxCell id="mQYFZl7Jgpbj4pTp9fjZ-102" value="Call Citizen" style="edgeLabel;html=1;align=center;verticalAlign=middle;resizable=0;points=[];" vertex="1" connectable="0" parent="mQYFZl7Jgpbj4pTp9fjZ-101">
          <mxGeometry x="0.8747" relative="1" as="geometry">
            <mxPoint as="offset" />
          </mxGeometry>
        </mxCell>
        <mxCell id="mQYFZl7Jgpbj4pTp9fjZ-99" value="[Log Entry Checked]" style="text;html=1;strokeColor=default;fillColor=none;align=center;verticalAlign=middle;whiteSpace=wrap;rounded=0;" vertex="1" parent="1">
          <mxGeometry x="75" y="1520" width="95" height="30" as="geometry" />
        </mxCell>
        <mxCell id="mQYFZl7Jgpbj4pTp9fjZ-110" style="edgeStyle=orthogonalEdgeStyle;rounded=0;orthogonalLoop=1;jettySize=auto;html=1;exitX=0.5;exitY=1;exitDx=0;exitDy=0;entryX=0;entryY=0.5;entryDx=0;entryDy=0;" edge="1" parent="1" source="mQYFZl7Jgpbj4pTp9fjZ-107" target="mQYFZl7Jgpbj4pTp9fjZ-86">
          <mxGeometry relative="1" as="geometry" />
        </mxCell>
        <mxCell id="mQYFZl7Jgpbj4pTp9fjZ-111" value="File case with log entry" style="edgeLabel;html=1;align=center;verticalAlign=middle;resizable=0;points=[];" vertex="1" connectable="0" parent="mQYFZl7Jgpbj4pTp9fjZ-110">
          <mxGeometry x="-0.0574" relative="1" as="geometry">
            <mxPoint as="offset" />
          </mxGeometry>
        </mxCell>
        <mxCell id="mQYFZl7Jgpbj4pTp9fjZ-107" value="[Citizen Informed about interruption]" style="text;html=1;strokeColor=default;fillColor=none;align=center;verticalAlign=middle;whiteSpace=wrap;rounded=0;" vertex="1" parent="1">
          <mxGeometry x="367.5" y="1740" width="140" height="30" as="geometry" />
        </mxCell>
      </root>
    </mxGraphModel>
  </diagram>
</mxfile>
